<svg width="1280" height="640" viewBox="0 0 1280 640" fill="none" xmlns="http://www.w3.org/2000/svg" role="img" aria-label="androir-mcp social preview">
  <title>androir-mcp — Drive real Android devices from any AI agent</title>
  <defs>
    <linearGradient id="bg" x1="0" y1="0" x2="1280" y2="640" gradientUnits="userSpaceOnUse">
      <stop offset="0" stop-color="#0B1410"/>
      <stop offset="1" stop-color="#0A1A12"/>
    </linearGradient>
    <linearGradient id="tile" x1="0" y1="0" x2="160" y2="160" gradientUnits="userSpaceOnUse">
      <stop offset="0" stop-color="#3DDC84"/>
      <stop offset="1" stop-color="#2BB673"/>
    </linearGradient>
    <radialGradient id="glow" cx="0.5" cy="0.5" r="0.5">
      <stop offset="0" stop-color="#3DDC84" stop-opacity="0.22"/>
      <stop offset="1" stop-color="#3DDC84" stop-opacity="0"/>
    </radialGradient>
  </defs>

  <rect width="1280" height="640" fill="url(#bg)"/>
  <circle cx="980" cy="200" r="420" fill="url(#glow)"/>

  <!-- subtle grid baseline -->
  <g stroke="#1C2C24" stroke-width="1" opacity="0.6">
    <line x1="96" y1="540" x2="1184" y2="540"/>
  </g>

  <!-- mark -->
  <g transform="translate(96,150)">
    <rect x="0" y="0" width="160" height="160" rx="38" fill="url(#tile)"/>
    <g fill="none" stroke="#0B1F17" stroke-linecap="round" transform="translate(5,5) scale(1.56)">
      <path d="M30 36a18 18 0 0 1 30.5 0" stroke-width="4" opacity="0.30"/>
      <path d="M24 30a26 26 0 0 1 41.5 0" stroke-width="4" opacity="0.16"/>
    </g>
    <path transform="translate(5,5) scale(1.56)" d="M44 36 L44 70 L51 62.5 L57 75 L63 72 L57 60 L66 60 Z"
          fill="#0B1F17" stroke="#0B1F17" stroke-width="2" stroke-linejoin="round"/>
  </g>

  <!-- title -->
  <text x="300" y="225" font-family="ui-monospace, SFMono-Regular, Menlo, Consolas, monospace"
        font-size="76" font-weight="700" letter-spacing="-1" fill="#E8FBF1">androir<tspan fill="#3DDC84">-mcp</tspan></text>

  <!-- tagline -->
  <text x="300" y="288" font-family="-apple-system, BlinkMacSystemFont, 'Segoe UI', Roboto, sans-serif"
        font-size="34" font-weight="500" fill="#9FB8AC">Drive real Android devices from any AI agent</text>

  <!-- meta line -->
  <text x="96" y="510" font-family="ui-monospace, SFMono-Regular, Menlo, Consolas, monospace"
        font-size="26" fill="#5E7A6D">adb + uiautomator&#160;&#160;·&#160;&#160;real UI tree, not OCR&#160;&#160;·&#160;&#160;argv-safe&#160;&#160;·&#160;&#160;Apache-2.0</text>

  <!-- mcp pill -->
  <g transform="translate(1010,478)">
    <rect x="0" y="0" width="174" height="44" rx="22" fill="none" stroke="#3DDC84" stroke-opacity="0.5"/>
    <text x="87" y="29" text-anchor="middle" font-family="ui-monospace, SFMono-Regular, Menlo, Consolas, monospace"
          font-size="20" font-weight="600" fill="#3DDC84">MCP server</text>
  </g>
</svg>
